<svg xmlns="http://www.w3.org/2000/svg" width="10.187" height="9.187" viewBox="0 0 10.187 9.187">
  <defs>
    <style>
      .cls-1 {
        fill: #1f2029;
        fill-rule: evenodd;
      }
    </style>
  </defs>
  <path class="cls-1" d="M330.878,117.558c-0.093.456-.153,0.677-0.5,0.7a0.189,0.189,0,0,0-.057.362,3.461,3.461,0,0,0,1.189.229h0a1.782,1.782,0,0,0,1.854-1.471l-1.209-1.221A1.449,1.449,0,0,0,330.878,117.558ZM337.3,112.2a0.246,0.246,0,0,0-.182-0.072c-0.107,0-.392,0-2.124,1.476-0.8.681-1.721,1.525-2.455,2.242L333.688,117c0.754-.786,1.634-1.77,2.334-2.615,0.442-.533.782-0.973,1.01-1.308C337.334,112.634,337.467,112.362,337.3,112.2Zm-4.394,6.757a2.41,2.41,0,0,1-1.4.405,3.924,3.924,0,0,1-1.381-.268,0.691,0.691,0,0,1,.19-1.325c0.026-.081.056-0.228,0.072-0.307a2.659,2.659,0,0,1,.388-1.04,1.846,1.846,0,0,1,1.215-.737c0.307-.306.658-0.642,1.024-0.983a0.638,0.638,0,0,1-.439-0.344,0.631,0.631,0,0,1,.3-0.845,0.635,0.635,0,0,1,.909.488c0.3-.273.606-0.537,0.89-0.78l0,0a4.642,4.642,0,0,0-1.338-1.574,4.6,4.6,0,0,0-2.765-.914h0a4.532,4.532,0,0,0-2.154.62,2.141,2.141,0,0,0-1.234,1.766,1.617,1.617,0,0,0,.821,1.419,0.837,0.837,0,0,1,0,1.56,1.617,1.617,0,0,0-.821,1.419,2.144,2.144,0,0,0,1.235,1.766,4.526,4.526,0,0,0,2.155.621h0a4.6,4.6,0,0,0,3.262-1.341,4.537,4.537,0,0,0,1.263-2.338c-0.437.486-.878,0.958-1.272,1.36A2.374,2.374,0,0,1,332.907,118.952Zm-2.243-6.325a0.638,0.638,0,1,1,.48.758A0.638,0.638,0,0,1,330.664,112.627Zm-2.069,1.164a0.631,0.631,0,0,1,.1-0.89,0.641,0.641,0,0,1,.9.1,0.631,0.631,0,0,1-.1.89A0.641,0.641,0,0,1,328.6,113.791Zm0.335,4.177a0.631,0.631,0,0,1-.1-0.89,0.641,0.641,0,0,1,.9-0.1,0.63,0.63,0,0,1,.1.89A0.64,0.64,0,0,1,328.93,117.968Z" transform="translate(-327.188 -110.719)"/>
</svg>
