<svg xmlns="http://www.w3.org/2000/svg" width="11.437" height="9.719" viewBox="0 0 11.437 9.719">
  <defs>
    <style>
      .cls-1 {
        fill: #1f2029;
        fill-rule: evenodd;
      }
    </style>
  </defs>
  <path class="cls-1" d="M468.5,114.559a1.475,1.475,0,1,0,1.039.432A1.416,1.416,0,0,0,468.5,114.559Zm3.752-4.651a2.8,2.8,0,0,0-2.762,2.4h-0.83l1.2,1.2,1.2-1.2H470.3a2,2,0,1,1,.335,1.566l-0.648.466a2.795,2.795,0,1,0,2.269-4.429h0Zm0,6.1a3.3,3.3,0,0,1-1.493-.359,2.506,2.506,0,0,1,.029.382,2.276,2.276,0,1,1-1.212-2.027l0.038-.027-2.178-2.181h1.645a3.319,3.319,0,0,1,.276-0.673h-2.164a0.91,0.91,0,0,0-.529.182,0.954,0.954,0,0,0-.355.431l-0.26.7H464.9a1.308,1.308,0,0,0-1.307,1.308v4.581a1.308,1.308,0,0,0,1.307,1.308h7.19a1.308,1.308,0,0,0,1.308-1.308V115.8A3.286,3.286,0,0,1,472.251,116.009Zm-0.4-4.5v1.625l1.191,0.715,0.411-.685-0.8-.483v-1.172h-0.8Z" transform="translate(-463.594 -109.906)"/>
</svg>
