<svg xmlns="http://www.w3.org/2000/svg" width="9.344" height="8.125" viewBox="0 0 9.344 8.125">
  <defs>
    <style>
      .cls-1 {
        fill: #1f2029;
        fill-rule: evenodd;
      }
    </style>
  </defs>
  <path class="cls-1" d="M291.088,112.867a1.2,1.2,0,0,0-.882-0.366h-1.091l-0.248-.663a0.908,0.908,0,0,0-.339-0.412,0.862,0.862,0,0,0-.5-0.173H285.53a0.862,0.862,0,0,0-.5.173,0.908,0.908,0,0,0-.339.412l-0.248.663h-1.091a1.248,1.248,0,0,0-1.247,1.248v4.37a1.248,1.248,0,0,0,1.247,1.248h6.858a1.248,1.248,0,0,0,1.247-1.248v-4.37A1.205,1.205,0,0,0,291.088,112.867Zm-2.769,4.61a2.18,2.18,0,1,1,.64-1.543A2.1,2.1,0,0,1,288.319,117.477Zm-1.542-2.947a1.407,1.407,0,1,0,.991.412A1.349,1.349,0,0,0,286.777,114.53Z" transform="translate(-282.094 -111.25)"/>
</svg>
