<svg xmlns="http://www.w3.org/2000/svg" width="14.375" height="8.656" viewBox="0 0 14.375 8.656">
  <defs>
    <style>
      .cls-1 {
        fill: #1f2029;
        fill-rule: evenodd;
      }
    </style>
  </defs>
  <path class="cls-1" d="M415.717,113.471a1.508,1.508,0,1,1-1.508,1.508A1.51,1.51,0,0,1,415.717,113.471Zm-5.357,3.864v-1h1v-1.263a4.329,4.329,0,0,1,.4-1.83l-0.735-.344a5.224,5.224,0,0,1,1.806-2.109l0.453,0.67a4.353,4.353,0,0,1,6.781,3.613v2.479a1.64,1.64,0,0,1-1.639,1.638H410.36v-1h-3.817v1.18H405.7v-2.028h4.665Zm5.357,0a2.356,2.356,0,1,0-2.357-2.356A2.359,2.359,0,0,0,415.717,117.335Z" transform="translate(-405.688 -110.719)"/>
</svg>
